<?xml version="1.0" encoding="utf-8"?>
<!-- Generator: Adobe Illustrator 27.3.1, SVG Export Plug-In . SVG Version: 6.00 Build 0)  -->
<svg version="1.1" id="Layer_1" xmlns="http://www.w3.org/2000/svg"
	xmlns:xlink="http://www.w3.org/1999/xlink" x="0px" y="0px"
	viewBox="-50 -100 1180 1280" xml:space="preserve"
	preserveAspectRatio="none" opacity="1" fill="#162b23" style="filter: drop-shadow(0px 0px 10px rgba(0,0,0,0.75));">
	<g>
	<path d="M1066.65,434.12c0.35-1.03,0.54-2.32,0.63-3.77L1066.65,434.12z"/>
	<path d="M1070.18,67.37c0.12,2.76,0.65,3.92,1.13,4.06C1070.97,68.87,1070.64,66.76,1070.18,67.37z"/>
	<path d="M1046.22,7.61c2.11,0.17,3.89,0.24,5.78,0.36C1049.96,7.49,1047.73,7.22,1046.22,7.61z"/>
	<path d="M1067.28,430.35l1.66-9.7C1067.22,419.97,1067.66,425.62,1067.28,430.35z"/>
	<path d="M1071.57,590.36l0.01,2.95c0.6,0.87,1.33,1.68,2.15,2.45L1071.57,590.36z"/>
	<path d="M1066.12,708.34c1.85,1.57,2.73,3.62,3.08,6.06c0.85,0.04,1.87-0.32,3.18-1.25
		C1072.57,710.38,1068.09,709.41,1066.12,708.34z"/>
	<path d="M1064.91,910.27c0.06,0.39,0.12,0.76,0.19,1.05L1064.91,910.27z"/>
	<path d="M1064.48,907.87l0.43,2.41C1064.78,909.48,1064.65,908.57,1064.48,907.87z"/>
	<path d="M1072.54,502.46c0.67-0.21,1.26-0.65,1.6-1.12C1073.58,501.34,1073.04,501.78,1072.54,502.46z"/>
	<path d="M1059.88,1057.65l-1.97,0.24c-0.21,0.85-0.43,1.68-0.43,2.51L1059.88,1057.65z"/>
	<path d="M928.12,1.86c0.22,0.05,0.3,0.05,0.5,0.09C931.61,1.44,929.92,1.53,928.12,1.86z"/>
	<path d="M8.56,163.93c4.01-11.79,5.15,19.2,9.61,1.44C16.41,167.02,11.17,149.23,8.56,163.93z"/>
	<path d="M666.8,4.56c0.53,0.79,1.58,1.39,2.66,1.96C669.37,6.07,668.77,5.5,666.8,4.56z"/>
	<path d="M861.48,10.95l-4.82-0.6C858.57,10.75,860.12,10.9,861.48,10.95z"/>
	<path d="M563.57,10.53c-1.33-0.25-2.52-0.4-4.94,0.01c0.33,0.23,0.66,0.39,1.09,0.55C560.66,10.64,561.84,10.37,563.57,10.53z"/>
	<path d="M563.57,10.53c0.63,0.12,1.3,0.26,2.14,0.37C564.91,10.7,564.21,10.59,563.57,10.53z"/>
	<path d="M460.51,10.92c0.56,0.34,1.29,0.6,1.94,0.9c1.04-0.08,2.26-0.16,3.33-0.24L460.51,10.92z"/>
	<path d="M663.17,1066.28c0.76,0.19,1.64,0.38,2.72,0.62C664.97,1066.67,664.07,1066.48,663.17,1066.28z"/>
	<path d="M294.64,1069.59c0-0.03-0.01-0.05-0.01-0.08C294.51,1069.54,294.54,1069.56,294.64,1069.59z"/>
	<path d="M547.85,13.95c0,0-0.15,0.16-0.27,0.38C547.75,14.21,547.85,14.08,547.85,13.95z"/>
	<path d="M1076.02,147.21c-3.72-8.12-2.62,16.67-6.96,9.41c0.72-14.12,8.34-28.83,8.36-33.25c2.94-19.34-7.76-18.05-5.75-38.28
		c-1.89,2.59-6.95,5.03-8.74-10.09c0.7-14.13,7.95-17.37,9.47-8.45c0.16,3.39-0.44,5.02-1.08,4.88c0.69,4.57,1.5,10.55,3.56,4.96
		l-1.9-1.83c1.93-7.01,1.73-26.45,4.84-21.88c-0.23-1.38-0.44-2.31-0.65-3.34c-0.21-1.4-0.41-2.39-0.61-3.04
		c-0.39-1.29-0.75-1.22-1.09-0.24c-0.17,0.49-0.33,1.2-0.49,2.09c-0.07,0.44-0.15,0.92-0.23,1.44c-0.07,0.33-0.14,0.69-0.22,1.07
		c-0.2,1.03-0.38,2.23-0.56,3.51c0.12-0.93,0.26-1.87,0.36-2.76l0.12-1.1c0.04-0.39,0.07-0.63,0.1-1.29
		c0.06-1.13,0.12-2.25,0.17-3.34c0.2-4.41,0.29-8.63,0.32-12.71c0.06-8.2-0.12-15.82-0.1-24.28c-6.94-0.01-14.3-0.16-22.94-0.71
		c4.41,1.04,7.03,3.27,2.67,3.25c-9.87-0.59-16.33-0.66-20.36-0.42c-2.88,0.24-3.98,0.79-4.97,1.44c-1.91,1.3-2.72,2.99-11.99,3.4
		c-10.53-2.89,3.77-6.9-14.89-4.48c-11.39-1.96-2.41-5.03,2.12-6.57c-17,3.65-31.77-2.4-41.48-3.07L972.06,0
		c-5.36,0.91-9.74,0.88-14.21,0.87l5.11,3.79c-5.26-0.66-9.71-0.67-9.61-2.25c-5.42,2.48,4.15,6.3-6.61,9.7
		c-7.01-1.93-21.35,2.07-23.77-2.96c19.98,1.55,1.76-3.86,12.03-5.49c-2.69,0.1-5.68-0.04-9.07-0.46c-0.79-0.56,0.75-1.04,2.18-1.33
		c-21.1-4.49-9.7,5.69-31.56,5.57c2.78-2.83-5.07-5.38-8.64-4.77c8.81,0.06,4.21,4.73-3.87,6.9c-14.02-2.21-15.24,1.64-22.58,1.38
		l8.38,1.04c-2.84,2.83-9.85,2.46-19.62,3.36c-0.26-0.69,0.5-1.09,1.57-1.36c-10.17,1.69-22.42-5.91-35.83-2.94
		c-7.01-1.92-0.68-5.32-6.83-6.63c-16.96,3.68-18.36-3.88-36.19-0.85c5.14,3.81,6.03,2.88-6.52,6.59l29.3-2.68l-18.8,5.54
		c8.84,0.05,18.66-2.39,23.96-1.75c-8.96,3.11-8.04,2.16-3.81,5.32c-12.1-5.71-23.99,3.33-37.98-0.53l0.43-9.43
		c-21.03-4.21-37.36,4.84-64.67,2.47l8.78,1.64c-3.66,3.75-16.86,0.52-25.7,2.04c0.82-3.15-4.7-4.3-8.48-6.26
		c0.46,2.34-19.99-0.21-22.47,6.08l-12.19-4.15c-22.05-1.7-25.16,8.98-46.36,7.91c6.38-3.43-3.25-5.66,10.95-8.11
		c-7.08-0.03-13.44-0.61-13.55,1.57c-4.13-1.97-19.62,4.25-26.13,1.25c-2.98,1.38-3.96,4.69-11.9,4.42
		c-0.51-0.38-0.41-0.85-0.23-1.18c-1.75,1.29-11.58,2.04-5.23,5.23c-21.8-9.84-60.92,0.72-79.9-7.73
		c-15.44,1.06-34.05,2.07-48.07,2.3c0.9-0.94,0.04-1.57,2.7-1.24c-19.34-2.93-11.89,9.05-33.9,5.78
		c-11.24-5.09,11.69-2.76,4.68-4.68c-3.05-10.37-26.56,1.41-41.37-4.64l3.59-0.61c-11.32-3.52-27.62,3.93-46.11,3.19
		c0,0,0.9-0.92,0.11-1.57c-12.65,5.29-36.59,7.04-54.39,8.51c5.54-4.06,8.08-2.15,4.7-6.27c-7.98,0.58,2.34,6.62-13.58,7.78
		c-5.18-2.22-16.66-4.16-18.18-8.56l15.02-0.24c-7.69-5.7-19.44,0.19-27.35-0.8l1.01-2.49c-23.01,0.81-23.33,7.08-48.07,6.63
		l2.56,1.89c-13.52,6.21-11.33-3.5-24.82,1.12l-4.08-6.3c-8.92,1.52-31.24,6.09-47.24,7.28c9.06-4.67,27.78-7.06,39.36-9.84
		c-8.84-0.05-30.05,0.46-34.65,3.57c3.56-0.61,8.05-2.15,11.57-1.18c-10.85,4.95-25.12,7.39-42.74,7.28c0.51-2-0.37-3.43-2.27-4.46
		c-0.95-0.52-2.14-0.93-3.55-1.27c-0.7-0.17-1.45-0.32-2.25-0.45c-0.4-0.06-0.81-0.12-1.23-0.19c-0.48-0.06-0.71-0.11-1.45-0.17
		c-10.28-0.83-24.41-0.77-38.09-1.22c-0.48,13.65-1.53,26.15-4.81,33.24l0.39,4.91l0.33,3.1c0.2,1.95,0.36,3.89,0.49,5.84
		c0.26,3.89,0.38,7.79,0.4,11.7c0.04,7.82-0.32,15.71-0.8,23.76c-0.96,16.1-2.39,32.84-2.02,51c9.51-12.88,0.27,10.6,10.03,8.37
		c0.62,8.4,0.47,11.63-0.15,12.42l0.41-1.78c-0.19,0.76-0.3,1.19-0.46,1.83h0.03l-5.82,25.59c-2.84,6.07-2.15-8.04-4.34-7.27
		c-0.75,18.52-4.14,7.77-6.73,20.02c3.49-2.51,5,6.44,3.67,16.99l4.5-14.86c5.2,25.88-8.19,22.37-3.05,48.45l-3.07-8.25
		c1.81,13.39-0.06,49.38,7.78,62.5c-1.13,2.37-3.8,5.5-4.5-0.4c-1.18,31.99,8.35,71.21,3.52,96.07l-2.39-2.43
		c0.69,5.97,4.49,10.39,2.08,17.86c-0.99-0.39-2.38-2.4-2.52,0.36c0.82,3.16,4.18,15.85,2.79,23.76l-2.69-6.76
		c-3.13,31.2,6.54,47.88,8.18,74.05c-7.03-0.07-9.31,24.48-10.45,36.74l-0.99-0.43c-0.87,36.33,5.82,61.72,8.58,95.36
		c-7.63,20.88-3.19,70.75-7.47,104.31c1.28-5.13,5.48,0.84,6.18,6.8c-1.42,7.88,4.88,21.77-1.57,20.53l0.12-2.81
		c-6.32,5.94-4.64,22.12-4.81,34.76l8.43,2.08c-12.26,33.06,4.51,86.63-6.48,104.67c2.11,7.98,2.08,17.86,4.19,25.77l-4.52-0.43
		c-1.15,22.11-1.72,33.14-0.64,60.47l-3.23-5.57c-0.29,15.41,13.04,19.46,13.3,33.68l-3.37,2.14l-1.69,1.07
		c-0.28,0.2-0.56,0.3-0.84,0.59l-0.84,0.9c0.03,14.07-0.52,28.39-1.11,43.55c7.88,0.31,15.75,0.62,23.62,0.92l12.2,0.32l10.77,0.13
		c9.26,0.01,18.48-0.67,27.62-2.78c-0.44,0.99-1.23,2.94-5.58,3.21c12.21,0.17,46.43,4.26,44.69-3.77
		c3.1,4.49,28.25-0.48,41.94-2.99l-2.26,4.45c12.26-5.68,12.65-7.24,29.76-8.81c3.73,0.53,3.59,3.08-0.63,2.61
		c12.14,1.74,9.83-4.33,25.71-2.04l-6.11,2.84c13.91,0.34,12.8-1.18,20.46-4.49c8.74-1.78,26.38,1.12,28.43,5.15
		c1.87-2.45,9.49-5.73,17.69-4.57c1.11,1.52-1.88,2.46-3.38,2.92c23.25,3.03,34.58-5.17,50.57-0.8c0.33,1.47,1.38,2.21,2.7,2.66
		c-16.99-0.1-30.9-0.31-31.95-0.6c0.19,4.03,14.84,4.78,3.04,10.41c11.98-3.09,32.46-9.81,47-7.88c0.71,0.4,1.39,0.79,1.92,1.42
		l-1.51,0.46c3.36,0.41,6.36,0.03,9.19-0.66c4.64,0.67,7.59,1.17,12.05,1.24c1.72,3.39,17.11,1.83,24.55,1.99
		c-0.62-4.49,9.13-3.77,0-7.47c1.18,0.32-1.41,0.54-6.35,0.72c-1.12,0.13-2.44,0.2-3.17,0.46c0.14-0.12,0.32-0.27,0.51-0.39
		c-4.88,0.13-11.26,0.23-18.49,0.3c5.88-2.28,12.02-4.2,20.25-1.71c3.82-2.89,8.02-5.85,10.39-7.24
		c10.18,6.26,29.81,9.64,32.54,13.5c22.72-2.52,53.52-1.66,67.8-10.09c6.46-1.08,7.43,2.42,9.84,3.74
		c-3.73,0.85-8.16,0.72-10.18,1.93c12.91-2.16,38.26-0.84,41.35-6.73c16.28,2.66-9.15,5.42,13.22,4.46l-3.02,1.8
		c43.18,9.24,70.51-14.1,117.6-3.57c-1.62-0.4-2.57-0.78-3.04-1.45c55.62,5.33,114.61-5,169.5,3.45c15.6,1.7,17.29-2.06,26.81-4.92
		l3.38,4.82l16.28-5.56c23.08-4.07,39.97,11.83,69.2,4.13l-3.77-3.25c10.5,0.61,33.25-1.91,31.49,1.82
		c1.07-0.59,3.44-3.38,7.54-1.68l0.32,2.52l25.78-4.32c19.99,1.83-3.13,10.01,26.04,10.51c10.84-0.97,30.87-7.34,26.8-9.03
		c-4.38-0.12-11.18-1.57-11.51-4.1l9.92-1.31c0.11-0.47,0.25-0.93,0.4-1.4h1.57v-4.57c0.62-2.06,0.89-4.07,0-5.99V939.28l1.23,1.19
		l-1.23-3.52v-15.17c0.95,0.46,1.76,1.9,2.15,4.89c3.28-11-2.36-9.74,1.3-19.2c0.57-1.04,0.89-0.57,1.15,0.4l-1.98-10.75
		c1.4,2.11,4.69-1.79,3.73,4.82c3.83-19.3-4.98-31.12,0.05-38.39l0.41,1.61c-1.68-20.02-3.57-11.55-6.82-14.4v-12.52l8.24-9.26
		l-4.87-2.63c0.18-2.76,0.54-8.23,2.49-7.22c-3.34-10.28-2.12,1.75-5.27-4.21c4.44-13.3-2.08-36.66,5.69-39.66
		c-3.7-4.77-2.86,12.72-5.43-1.48c8.35-4.05-1.43-16.41,2.4-28.55c4.31,3.73,2.03,15.24,5.87,3.08c-7.29-7.33,1.6-23.65,0.2-33.9
		c-5.8-0.48-2.42-22.28-4.35-39.47c1.95,1.09,3.19-32.35,5.29-48.34l0.97,0.47c-5.86-3.1-4.76-19.6-5.97-31.61
		c3.51,0.47,4.89,2.63,6.46,9.14l-0.03-11.29c-1.88-2.66-2.87-6.19-3.54-13.51l4.38,2.84c-0.24-15.03-5.16-30.27-2.23-49.61
		c-2.77-0.74-7.01,6.57-10.3,5.01v-10.48c1.39,0.35,2.62,1.48,3.09,4.24c-0.29-1.75-1.84-6.25-0.89-9.78l3.72,8.17
		c1.63-8.81-3.11-4.61-2.76-11.65c3.15,0.14,2.25-5.21,4.75-4.2c0.31,1.8-1.3,6.14-0.07,8.84c0.57-7.94,2.43-17.54,4.82-20.71
		c-1.79,0.69-4.25,0-4.65-5.81c-0.23-15.03,3.79-5.14,5.41-13.91c-2.19-3.64,0.08-13.23-4.64-13.48c0.02-4.4,2.22-5.21,3.5-6.91
		c-2.08-7.78-0.59-36.33-5.61-27.57l-0.33,2c-0.1-0.37-0.1-0.81-0.21-1.27c-4.69-25.49,2.67-52.96,0.65-78.26l1.58,0.04
		c-1.8-15.1-1.06-33.61-4.46-44.39c0-4.47,2.88-10.54,4.76-8.63c-1.18-11.54-2.96-12.84-0.35-29.51c2.75,11.61,2.44-4,2.01,11.89
		c1.36-15,3.89-18.4-0.42-34.5c4.04,5.48,5.09-11.29,3.88-18.42l-2.89,10.51c-0.59-8.02-0.23-15.03,0.11-22.15l5.31,3.85
		C1082.66,195.24,1065.2,170.58,1076.02,147.21z M377.01,1074c0.14-0.17,0.44-0.36,0.58-0.55c-0.47,0.86-1.01,1.66-1.95,2.25
		c-4.95,0.64-6.61-0.25-7.28-1.17C370.69,1074.46,373.43,1074.3,377.01,1074z M1060.58,903.2c-0.23,0.66-0.47,1.15-0.7,1.5v-6.4
		C1060.13,899.83,1060.37,901.44,1060.58,903.2z"/>
	<path d="M935.01,3.66c1.49-0.05,2.91-0.16,4.19-0.37C937.45,3.36,936.08,3.49,935.01,3.66z"/>
	<path d="M190.51,1068.53c-0.39-0.06-0.79-0.12-1.2-0.19C189.74,1068.43,190.14,1068.49,190.51,1068.53z"/>
	<path d="M851.8,13.98c0.23-0.04,0.46-0.1,0.69-0.15C852.26,13.88,852.02,13.93,851.8,13.98z"/>
	<path d="M855.62,12.85c-1.02,0.47-2.06,0.76-3.13,0.99C854.83,13.41,857.8,13.45,855.62,12.85z"/>
	<path d="M384.54,1069.81c0.71-0.1,1.11-0.29,2.04-0.33c-1.01-0.4-1.97-0.73-2.95-1.01c-0.6,0.48-1.22,0.95-1.75,1.41
		C382.77,1069.86,383.7,1069.84,384.54,1069.81z"/>
	<path d="M1066.65,434.12c-0.14,0.43-0.29,0.8-0.48,1.11c0.14-0.19,0.25-0.25,0.38-0.45L1066.65,434.12z"/>
	<path d="M1066.02,435.5c0.06-0.07,0.11-0.18,0.16-0.27C1066.13,435.3,1066.07,435.39,1066.02,435.5z"/>
	<path d="M1067.6,791.65l-1.3,19.28c1.73-3.37,4.07-7.8,4.48,0.97C1075.95,787.59,1066.9,816.91,1067.6,791.65z"/>
	<path d="M1070.12,731.88c0.81,10.36,2.52-0.12,3.5,0.43C1072.03,725.73,1071.64,724.14,1070.12,731.88z"/>
	<path d="M1070.13,299.91l4.08,1.04C1073.63,292.97,1072.63,300.88,1070.13,299.91z"/>
	<polygon points="1077.22,158.73 1078.12,168.56 1078.7,172.05 	"/>
	<path d="M479.22,6.95l2.41,5.03C487.03,11.08,488.16,5.43,479.22,6.95z"/>
	<path d="M166.03,12.08c-3.41-2.51-12.22-4.13-17.65-1.66C155.42,10.76,162.45,12.72,166.03,12.08z"/>
	<polygon points="7.27,824.12 5.59,817.82 6.99,829.69 	"/>
</g>
</svg>